<svg width='24' height='24' viewBox='0 0 24 24' xmlns='http://www.w3.org/2000/svg' xmlns:xlink='http://www.w3.org/1999/xlink'><rect width='24' height='24' stroke='none' fill='#000000' opacity='0'/>


    <g transform="matrix(0.42 0 0 0.42 12 12)" >
        <g style="" >
            <g transform="matrix(1 0 0 1 0 -10)" >
                <path style="stroke: none; stroke-width: 1; stroke-dasharray: none; stroke-linecap: butt; stroke-dashoffset: 0; stroke-linejoin: miter; stroke-miterlimit: 4; fill: rgb(255,61,0); fill-rule: nonzero; opacity: 1;" transform=" translate(-24, -14)" d="M 24 4 C 12.953 4 4 12.953 4 24 L 44 24 C 44 12.953 35.047 4 24 4 z" stroke-linecap="round" />
            </g>
            <g transform="matrix(1 0 0 1 0 10)" >
                <path style="stroke: none; stroke-width: 1; stroke-dasharray: none; stroke-linecap: butt; stroke-dashoffset: 0; stroke-linejoin: miter; stroke-miterlimit: 4; fill: rgb(228,232,234); fill-rule: nonzero; opacity: 1;" transform=" translate(-24, -34)" d="M 24 44 C 35.047 44 44 35.047 44 24 L 4 24 C 4 35.047 12.953 44 24 44 z" stroke-linecap="round" />
            </g>
            <g transform="matrix(1 0 0 1 0 10)" >
                <path style="stroke: none; stroke-width: 1; stroke-dasharray: none; stroke-linecap: butt; stroke-dashoffset: 0; stroke-linejoin: miter; stroke-miterlimit: 4; fill: rgb(207,216,220); fill-rule: nonzero; opacity: 1;" transform=" translate(-24, -34)" d="M 24 44 C 35.047 44 44 35.047 44 24 C 44 24 43.84 40 24 40 C 4.159999999999997 40 4 24 4 24 C 4 35.047 12.953 44 24 44 z" stroke-linecap="round" />
            </g>
            <g transform="matrix(1 0 0 1 0 0)" >
                <path style="stroke: none; stroke-width: 1; stroke-dasharray: none; stroke-linecap: butt; stroke-dashoffset: 0; stroke-linejoin: miter; stroke-miterlimit: 4; fill: rgb(144,164,174); fill-rule: nonzero; opacity: 1;" transform=" translate(-24, -24)" d="M 43 24 C 43 19.58 34.495 16 24 16 C 13.505000000000003 16 5 19.58 5 24 C 5 28.42 13.505 32 24 32 C 34.495 32 43 28.42 43 24 z" stroke-linecap="round" />
            </g>
            <g transform="matrix(1 0 0 1 0 -4)" >
                <path style="stroke: none; stroke-width: 1; stroke-dasharray: none; stroke-linecap: butt; stroke-dashoffset: 0; stroke-linejoin: miter; stroke-miterlimit: 4; fill: rgb(84,110,122); fill-rule: nonzero; opacity: 1;" transform=" translate(-24, -20)" d="M 5 24 C 5 19.58 13.505 16 24 16 C 34.495 16 43 19.58 43 24 L 5 24 z" stroke-linecap="round" />
            </g>
            <g transform="matrix(1 0 0 1 0 2.5)" >
                <path style="stroke: none; stroke-width: 1; stroke-dasharray: none; stroke-linecap: butt; stroke-dashoffset: 0; stroke-linejoin: miter; stroke-miterlimit: 4; fill: rgb(55,71,79); fill-rule: nonzero; opacity: 1;" transform=" translate(-24, -26.5)" d="M 44 24 C 44 18.953 35.215 15 24 15 C 12.784999999999997 15 4 18.953 4 24 C 4 28.107 9.82 31.489 18.031 32.607 C 18.334 35.633 20.892 38 24 38 C 27.108 38 29.666 35.633 29.969 32.607 C 38.18 31.489 44 28.107 44 24 z M 24 31 C 13.393 31 6 27.311 6 24 C 6 20.689 13.393 17 24 17 C 34.607 17 42 20.689 42 24 C 42 27.311 34.607 31 24 31 z" stroke-linecap="round" />
            </g>
            <g transform="matrix(1 0 0 1 0 -8)" >
                <circle style="stroke: none; stroke-width: 1; stroke-dasharray: none; stroke-linecap: butt; stroke-dashoffset: 0; stroke-linejoin: miter; stroke-miterlimit: 4; fill: rgb(55,71,79); fill-rule: nonzero; opacity: 1;" cx="0" cy="0" r="6" />
            </g>
            <g transform="matrix(1 0 0 1 0 -8)" >
                <circle style="stroke: none; stroke-width: 1; stroke-dasharray: none; stroke-linecap: butt; stroke-dashoffset: 0; stroke-linejoin: miter; stroke-miterlimit: 4; fill: rgb(228,232,234); fill-rule: nonzero; opacity: 1;" cx="0" cy="0" r="4" />
            </g>
            <g transform="matrix(1 0 0 1 0 -8)" >
                <circle style="stroke: none; stroke-width: 1; stroke-dasharray: none; stroke-linecap: butt; stroke-dashoffset: 0; stroke-linejoin: miter; stroke-miterlimit: 4; fill: rgb(55,71,79); fill-rule: nonzero; opacity: 1;" cx="0" cy="0" r="2" />
            </g>
        </g>
    </g>
</svg>